<svg width="19" height="19" viewBox="0 0 19 19" fill="none" xmlns="http://www.w3.org/2000/svg">
<g clip-path="url(#clip0_3_5)">
<path d="M9.50001 12.0333C10.8991 12.0333 12.0333 10.8991 12.0333 9.50001C12.0333 8.10089 10.8991 6.96667 9.50001 6.96667C8.10089 6.96667 6.96667 8.10089 6.96667 9.50001C6.96667 10.8991 8.10089 12.0333 9.50001 12.0333Z" fill="black"/>
<path d="M7.12501 1.58334L5.67626 3.16668H3.16668C2.29584 3.16668 1.58334 3.87918 1.58334 4.75001V14.25C1.58334 15.1208 2.29584 15.8333 3.16668 15.8333H15.8333C16.7042 15.8333 17.4167 15.1208 17.4167 14.25V4.75001C17.4167 3.87918 16.7042 3.16668 15.8333 3.16668H13.3238L11.875 1.58334H7.12501ZM9.50001 13.4583C7.31501 13.4583 5.54168 11.685 5.54168 9.50001C5.54168 7.31501 7.31501 5.54168 9.50001 5.54168C11.685 5.54168 13.4583 7.31501 13.4583 9.50001C13.4583 11.685 11.685 13.4583 9.50001 13.4583Z" fill="black"/>
</g>
<defs>
<clipPath id="clip0_3_5">
<rect width="19" height="19" fill="white"/>
</clipPath>
</defs>
</svg>
